# xmcd CD database file
#
# Track frame offsets:
#	150
#	16437
#	35327
#	51675
#
# Disc length: 938 seconds
#
# Revision: 0
# Processed by: cddbd v1.5.1PL0 Copyright (c) Steve Scherf et al.
# Submitted via: CDex 1.51
#
DISCID=3103a804
DTITLE=谷本貴義 - 見えない翼
DYEAR=2005
DGENRE=Anime
TTITLE0=見えない翼
TTITLE1=Overdrive
TTITLE2=見えない翼(original karaoke)
TTITLE3=Overdrive(original karaoke)
EXTD=YEAR: 2005
EXTT0=
EXTT1=
EXTT2=
EXTT3=
PLAYORDER=
